<svg xmlns="http://www.w3.org/2000/svg" xmlns:xlink="http://www.w3.org/1999/xlink" width="200" zoomAndPan="magnify" viewBox="0 0 150 37.5" height="50" preserveAspectRatio="xMidYMid meet" version="1.0"><defs><clipPath id="979bab964c"><path d="M 17 14.789062 L 43.917969 14.789062 L 43.917969 37.007812 L 17 37.007812 Z M 17 14.789062 " clip-rule="nonzero"/></clipPath><clipPath id="1e44d19cd4"><path d="M 13.371094 1.363281 L 33.207031 1.363281 L 33.207031 25 L 13.371094 25 Z M 13.371094 1.363281 " clip-rule="nonzero"/></clipPath></defs><g clip-path="url(#979bab964c)"><path fill="#51ade5" d="M 26.488281 30.261719 C 27.777344 30.09375 29 28.941406 29.023438 28.921875 C 29.019531 28.929688 29.066406 29.011719 30.222656 29.804688 C 31.613281 30.757812 32.875 29.335938 32.875 29.335938 C 34.765625 30.515625 36.066406 29.957031 36.066406 29.957031 C 34.917969 30.703125 33.277344 30.210938 33.277344 30.210938 C 30.769531 31.625 29.074219 29.933594 29.074219 29.933594 C 28.023438 30.433594 26.488281 30.261719 26.488281 30.261719 Z M 17.117188 29.148438 C 17.917969 30.902344 19.066406 32.460938 20.476562 33.734375 C 24.519531 33.085938 26.082031 31.242188 26.082031 31.242188 C 26.082031 31.242188 27.253906 33.285156 30.027344 33.265625 C 32.796875 33.246094 33.40625 31.242188 33.40625 31.242188 C 33.40625 31.242188 34.394531 32.535156 36.949219 33.164062 C 38.59375 33.570312 40.519531 32.546875 41.082031 31.765625 C 40.101562 31.523438 39.410156 31.269531 39.410156 31.269531 C 37.4375 32.453125 35.367188 31.589844 35.367188 31.589844 C 37.445312 31.964844 39.175781 29.363281 39.175781 29.363281 C 39.175781 29.363281 39.925781 30.324219 41.59375 31.046875 C 43.054688 28.824219 43.910156 26.164062 43.910156 23.304688 C 43.910156 20.144531 42.871094 17.230469 41.113281 14.882812 C 40.875 15.050781 40.597656 15.28125 40.246094 15.660156 C 37.371094 18.765625 33.265625 21.824219 30.0625 23.832031 C 25.683594 26.574219 21.085938 28.355469 17.117188 29.148438 Z M 20.777344 34 C 23.226562 36.097656 26.40625 37.363281 29.878906 37.363281 C 32.921875 37.363281 35.734375 36.390625 38.035156 34.742188 C 35.585938 34.804688 33.871094 33.40625 33.871094 33.40625 C 30.03125 36.167969 26.082031 33.285156 26.082031 33.285156 C 23.351562 34.046875 21.679688 34.089844 20.777344 34 " fill-opacity="1" fill-rule="nonzero"/></g><path fill="#3871c1" d="M 30.0625 23.832031 C 33.265625 21.824219 37.371094 18.765625 40.246094 15.660156 C 40.597656 15.28125 40.875 15.050781 41.113281 14.882812 C 41.179688 14.972656 41.25 15.0625 41.3125 15.152344 C 39.605469 17.789062 36.300781 22.292969 31.625 25.996094 C 27.476562 29.28125 23.203125 31.636719 19.570312 32.839844 C 18.570312 31.753906 17.738281 30.511719 17.117188 29.148438 C 21.085938 28.355469 25.683594 26.574219 30.0625 23.832031 " fill-opacity="1" fill-rule="nonzero"/><path fill="#f68712" d="M 39.726562 13.289062 C 38.234375 14.925781 35.449219 17.636719 31.539062 20.070312 C 28.203125 22.144531 24.726562 23.703125 21.695312 24.535156 C 21.054688 24.710938 20.4375 24.855469 19.84375 24.960938 C 18.945312 25.125 18.109375 25.210938 17.347656 25.210938 C 16.832031 25.210938 16.367188 25.171875 15.960938 25.09375 C 15.886719 24.507812 15.847656 23.910156 15.847656 23.304688 C 15.847656 18.195312 18.566406 13.722656 22.636719 11.261719 C 23.886719 10.503906 25.265625 9.933594 26.734375 9.597656 C 26.742188 9.597656 26.75 9.597656 26.757812 9.59375 C 27.136719 9.507812 27.527344 9.4375 27.917969 9.378906 C 27.972656 9.371094 28.027344 9.367188 28.082031 9.359375 C 28.472656 9.308594 28.863281 9.273438 29.261719 9.257812 C 29.289062 9.257812 29.3125 9.257812 29.339844 9.253906 C 29.519531 9.25 29.699219 9.242188 29.878906 9.242188 C 30.59375 9.242188 31.292969 9.296875 31.976562 9.402344 C 34.976562 9.851562 37.664062 11.253906 39.726562 13.289062 " fill-opacity="1" fill-rule="nonzero"/><path fill="#2c3892" d="M 47.242188 7.445312 C 48.332031 5.773438 48.921875 4.285156 48.570312 4.046875 C 48.21875 3.804688 47.054688 4.898438 45.898438 6.523438 L 41.449219 6.558594 L 40.738281 7.605469 L 44.226562 9.132812 C 43.777344 9.875 43.3125 10.667969 42.90625 11.398438 L 40.632812 11.28125 L 40.292969 11.78125 L 42.234375 12.65625 C 42.199219 12.722656 38.695312 17.394531 32.332031 21.351562 C 23.722656 26.707031 15.058594 28.328125 12.972656 24.964844 C 11.527344 22.636719 13.621094 18.527344 17.910156 14.4375 C 11.050781 19.761719 7.269531 25.734375 9.195312 28.839844 C 11.488281 32.539062 21.039062 30.785156 30.492188 24.863281 C 38.136719 20.074219 42.863281 13.121094 42.882812 13.097656 L 43.703125 14.234375 L 44.042969 13.734375 L 43.804688 12.015625 C 44.335938 11.371094 44.90625 10.644531 45.429688 9.957031 L 46.207031 12.332031 L 46.917969 11.285156 L 47.242188 7.445312 " fill-opacity="1" fill-rule="nonzero"/><g clip-path="url(#1e44d19cd4)"><path fill="#24265d" d="M 29.707031 9.558594 C 30.15625 9.945312 30.703125 10.199219 31.28125 10.308594 C 31.894531 10.429688 32.472656 10.617188 33.101562 10.917969 C 33.101562 10.917969 32.71875 10.191406 31.976562 9.402344 C 30.871094 8.222656 28.960938 6.898438 26.339844 7.644531 C 26.375 7.617188 26.414062 7.59375 26.457031 7.570312 C 26.265625 7.496094 26.046875 7.433594 25.796875 7.40625 C 25.796875 7.40625 25.929688 7.367188 26.144531 7.363281 C 26.550781 7.359375 26.949219 7.257812 27.304688 7.0625 L 27.316406 7.054688 C 27.101562 6.957031 26.988281 6.792969 26.683594 6.761719 C 26.683594 6.761719 26.859375 6.707031 27.136719 6.71875 C 27.597656 6.742188 28.054688 6.65625 28.46875 6.453125 C 28.492188 6.445312 28.515625 6.433594 28.539062 6.421875 C 28.308594 6.300781 28.007812 6.191406 27.65625 6.152344 C 27.65625 6.152344 27.898438 6.070312 28.242188 6.074219 C 28.921875 6.078125 29.597656 5.933594 30.230469 5.679688 C 30.257812 5.671875 30.28125 5.660156 30.304688 5.652344 C 29.75 5.484375 29.007812 5.316406 28.644531 5.277344 C 28.644531 5.277344 30.417969 5.09375 31.722656 5.222656 C 31.722656 5.222656 27.3125 2.171875 24.820312 7.734375 C 25.234375 6.347656 25.355469 3.929688 23.15625 2.425781 C 22.121094 1.71875 20.703125 1.363281 20.703125 1.363281 C 21.097656 1.75 23.023438 4.03125 23.195312 4.382812 C 23.183594 4.371094 22.707031 4.019531 22.148438 3.785156 C 22.160156 3.8125 22.167969 3.835938 22.175781 3.863281 C 22.328125 4.347656 23.238281 5.460938 23.34375 5.675781 C 23.34375 5.675781 22.960938 5.386719 22.472656 5.15625 C 22.585938 5.859375 22.914062 6.609375 22.941406 7.242188 C 20.722656 2.914062 15.871094 4.261719 15.871094 4.261719 C 17.464844 4.429688 19.535156 5.09375 19.535156 5.09375 C 19.097656 5.050781 18.167969 5.066406 17.460938 5.125 C 17.484375 5.140625 17.507812 5.15625 17.535156 5.175781 C 18.234375 5.640625 19.007812 5.976562 19.828125 6.144531 C 20.234375 6.230469 20.503906 6.386719 20.503906 6.386719 C 20.070312 6.347656 19.6875 6.402344 19.378906 6.488281 L 19.417969 6.515625 C 19.882812 6.871094 20.429688 7.097656 21.003906 7.195312 C 21.328125 7.253906 21.515625 7.355469 21.515625 7.355469 C 21.144531 7.320312 20.964844 7.488281 20.683594 7.550781 C 20.695312 7.5625 20.707031 7.570312 20.71875 7.582031 C 20.820312 7.667969 20.925781 7.75 21.039062 7.816406 C 15.234375 5.9375 13.726562 10.148438 13.726562 10.148438 C 15.03125 9.238281 17.003906 8.390625 17.039062 8.371094 C 16.679688 8.628906 15.984375 9.25 15.496094 9.761719 C 15.5 9.757812 15.503906 9.757812 15.507812 9.757812 C 16.382812 9.640625 17.226562 9.359375 18.007812 8.945312 C 18.34375 8.769531 18.617188 8.714844 18.617188 8.714844 C 18.261719 8.96875 18.007812 9.261719 17.832031 9.527344 C 17.839844 9.527344 17.847656 9.527344 17.855469 9.527344 C 18.449219 9.492188 19.023438 9.304688 19.53125 8.996094 C 19.800781 8.835938 20 8.785156 20.011719 8.785156 C 19.710938 9 19.683594 9.246094 19.511719 9.476562 L 19.523438 9.476562 C 20.015625 9.476562 20.5 9.355469 20.933594 9.117188 C 21.164062 8.988281 21.332031 8.949219 21.339844 8.945312 C 21.09375 9.125 20.898438 9.320312 20.738281 9.511719 C 20.972656 9.523438 21.191406 9.539062 21.402344 9.554688 C 18.203125 10.347656 18.21875 14.0625 18.21875 14.0625 C 18.410156 13.664062 18.652344 13.320312 18.933594 13.019531 C 19.070312 12.292969 19.363281 11.71875 19.363281 11.71875 C 19.300781 12.085938 19.4375 12.929688 19.441406 12.925781 C 19.898438 12.523438 20.097656 11.789062 20.335938 11.222656 C 20.394531 11.078125 20.4375 10.992188 20.4375 10.992188 C 20.375 11.347656 20.347656 11.667969 20.339844 11.949219 C 20.34375 11.949219 20.347656 11.945312 20.347656 11.945312 C 20.957031 11.605469 21.441406 11.082031 21.71875 10.445312 C 21.765625 10.339844 21.699219 11.011719 21.695312 11.3125 C 22.515625 10.554688 23.023438 10.769531 23.023438 10.769531 C 22.902344 10.914062 22.773438 11.078125 22.636719 11.261719 C 21.152344 13.253906 18.992188 17.539062 19.84375 24.960938 C 20.4375 24.855469 21.054688 24.710938 21.695312 24.535156 C 21 21.628906 20.171875 15.648438 23.558594 11.210938 C 23.558594 11.246094 23.683594 11.011719 23.792969 10.894531 C 23.8125 10.910156 23.574219 11.917969 23.558594 12.335938 L 23.558594 12.347656 C 23.757812 12.207031 23.964844 12.191406 24.15625 11.941406 C 24.152344 11.953125 24.109375 12.121094 23.964844 12.34375 C 23.691406 12.765625 23.523438 13.246094 23.476562 13.742188 C 23.472656 13.75 23.472656 13.757812 23.472656 13.761719 C 23.703125 13.621094 23.953125 13.414062 24.175781 13.121094 C 24.175781 13.136719 24.121094 13.363281 23.96875 13.632812 C 23.601562 14.28125 23.34375 14.984375 23.222656 15.71875 C 23.222656 15.722656 23.222656 15.726562 23.21875 15.730469 C 23.660156 15.328125 24.199219 14.757812 24.425781 14.460938 C 24.410156 14.496094 23.644531 16.136719 22.847656 17.214844 C 22.847656 17.214844 26.414062 15.636719 25.242188 11.128906 C 25.410156 11.804688 25.804688 12.402344 26.363281 12.824219 C 26.367188 12.828125 26.371094 12.828125 26.375 12.832031 C 26.4375 12.585938 26.464844 11.929688 26.472656 11.621094 C 26.472656 11.621094 27.191406 12.492188 27.484375 13.730469 L 27.492188 13.738281 C 27.546875 13.5 27.625 12.859375 27.632812 12.5625 C 27.632812 12.5625 28.164062 13.644531 29.035156 15.984375 C 29.035156 15.984375 30.109375 11.957031 27.023438 9.769531 C 27.429688 9.984375 27.886719 10.09375 28.351562 10.089844 L 28.367188 10.089844 C 28.296875 9.929688 27.921875 9.5 27.867188 9.421875 C 27.867188 9.421875 29.226562 10.089844 29.785156 10.128906 L 29.800781 10.128906 C 29.714844 9.941406 29.324219 9.335938 29.300781 9.296875 C 29.300781 9.296875 29.570312 9.4375 29.707031 9.558594 " fill-opacity="1" fill-rule="nonzero"/></g><path fill="#f68712" d="M 57.292969 32.527344 L 57.292969 32.511719 L 50.195312 19.3125 L 53.859375 19.3125 L 57.3125 25.902344 L 60.753906 19.3125 L 64.410156 19.3125 L 57.3125 32.511719 Z M 57.292969 32.527344 " fill-opacity="1" fill-rule="nonzero"/><path fill="#f68712" d="M 68.453125 18.359375 L 68.453125 20.757812 L 65.628906 20.757812 L 65.628906 18.359375 Z M 68.480469 22.078125 L 68.480469 32.527344 L 65.628906 32.527344 L 65.628906 22.078125 Z M 68.480469 22.078125 " fill-opacity="1" fill-rule="nonzero"/><path fill="#f68712" d="M 74.902344 22.097656 C 76.390625 21.976562 77.625 22.363281 78.601562 23.253906 C 79.644531 24.21875 80.167969 25.566406 80.167969 27.304688 L 80.167969 32.527344 L 77.523438 32.527344 L 77.523438 27.367188 L 77.503906 27.367188 L 77.503906 27.320312 C 77.503906 26.601562 77.253906 25.992188 76.753906 25.492188 C 76.25 24.996094 75.636719 24.742188 74.917969 24.742188 C 74.1875 24.769531 73.578125 25.023438 73.089844 25.511719 C 72.578125 26.03125 72.335938 26.640625 72.359375 27.347656 L 72.359375 27.367188 L 72.339844 27.367188 L 72.339844 32.527344 L 69.496094 32.527344 L 69.496094 22.015625 L 72.339844 22.015625 L 72.339844 23.378906 C 72.976562 22.621094 73.828125 22.191406 74.902344 22.097656 Z M 74.902344 22.097656 " fill-opacity="1" fill-rule="nonzero"/><path fill="#f68712" d="M 85.414062 32.527344 C 84.707031 32.527344 84.089844 32.421875 83.5625 32.207031 C 83.140625 32.054688 82.707031 31.777344 82.257812 31.371094 C 81.484375 30.652344 81.132812 29.742188 81.207031 28.648438 L 81.207031 28.417969 L 83.480469 28.460938 L 83.667969 28.460938 L 83.667969 28.625 C 83.679688 28.964844 83.753906 29.242188 83.890625 29.460938 C 84.117188 29.855469 84.625 30.050781 85.414062 30.050781 C 86.0625 30.050781 86.53125 29.976562 86.816406 29.824219 C 86.964844 29.757812 87.066406 29.667969 87.117188 29.558594 C 87.148438 29.519531 87.164062 29.476562 87.164062 29.4375 L 87.179688 29.335938 C 87.179688 29.050781 86.957031 28.820312 86.511719 28.648438 C 86.332031 28.578125 86.128906 28.523438 85.898438 28.480469 C 85.722656 28.441406 85.527344 28.40625 85.308594 28.382812 C 84.492188 28.300781 83.816406 28.136719 83.277344 27.890625 C 82.734375 27.679688 82.285156 27.378906 81.9375 27 C 81.449219 26.441406 81.207031 25.804688 81.207031 25.089844 C 81.207031 24.640625 81.285156 24.226562 81.445312 23.84375 C 81.570312 23.546875 81.734375 23.285156 81.9375 23.058594 C 82.667969 22.214844 83.839844 21.792969 85.453125 21.792969 C 86.414062 21.792969 87.226562 21.984375 87.894531 22.363281 C 88.40625 22.648438 88.820312 23.035156 89.132812 23.523438 C 89.375 23.890625 89.546875 24.320312 89.640625 24.804688 C 89.667969 24.964844 89.6875 25.121094 89.703125 25.269531 L 89.703125 25.699219 L 87.242188 25.699219 L 87.242188 25.394531 C 87.230469 25.339844 87.222656 25.285156 87.222656 25.226562 C 87.183594 25.078125 87.125 24.957031 87.058594 24.859375 C 86.757812 24.457031 86.222656 24.253906 85.453125 24.253906 C 84.3125 24.253906 83.746094 24.492188 83.746094 24.964844 C 83.746094 25.210938 83.878906 25.40625 84.148438 25.554688 C 84.433594 25.734375 84.914062 25.863281 85.59375 25.941406 C 87.152344 26.105469 88.285156 26.601562 88.992188 27.425781 C 89.464844 27.980469 89.703125 28.617188 89.703125 29.335938 L 89.703125 29.480469 L 89.679688 29.664062 C 89.679688 29.839844 89.660156 30 89.621094 30.148438 C 89.511719 30.582031 89.308594 30.96875 89.007812 31.308594 C 88.671875 31.714844 88.199219 32.023438 87.589844 32.226562 C 86.976562 32.429688 86.253906 32.527344 85.414062 32.527344 Z M 85.414062 32.527344 " fill-opacity="1" fill-rule="nonzero"/><path fill="#f68712" d="M 95.152344 32.527344 C 94.445312 32.527344 93.828125 32.421875 93.296875 32.207031 C 92.878906 32.054688 92.445312 31.777344 91.996094 31.371094 C 91.222656 30.652344 90.871094 29.742188 90.941406 28.648438 L 90.941406 28.417969 L 93.21875 28.460938 L 93.402344 28.460938 L 93.402344 28.625 C 93.417969 28.964844 93.492188 29.242188 93.628906 29.460938 C 93.855469 29.855469 94.363281 30.050781 95.152344 30.050781 C 95.800781 30.050781 96.269531 29.976562 96.554688 29.824219 C 96.703125 29.757812 96.800781 29.667969 96.855469 29.558594 C 96.882812 29.519531 96.898438 29.476562 96.898438 29.4375 L 96.917969 29.335938 C 96.917969 29.050781 96.695312 28.820312 96.25 28.648438 C 96.070312 28.578125 95.867188 28.523438 95.636719 28.480469 C 95.460938 28.441406 95.265625 28.40625 95.046875 28.382812 C 94.230469 28.300781 93.554688 28.136719 93.011719 27.890625 C 92.472656 27.679688 92.023438 27.378906 91.675781 27 C 91.1875 26.441406 90.941406 25.804688 90.941406 25.089844 C 90.941406 24.640625 91.023438 24.226562 91.183594 23.84375 C 91.308594 23.546875 91.472656 23.285156 91.675781 23.058594 C 92.40625 22.214844 93.578125 21.792969 95.1875 21.792969 C 96.152344 21.792969 96.964844 21.984375 97.632812 22.363281 C 98.144531 22.648438 98.558594 23.035156 98.871094 23.523438 C 99.113281 23.890625 99.285156 24.320312 99.378906 24.804688 C 99.40625 24.964844 99.425781 25.121094 99.441406 25.269531 L 99.441406 25.699219 L 96.980469 25.699219 L 96.980469 25.394531 C 96.96875 25.339844 96.960938 25.285156 96.960938 25.226562 C 96.921875 25.078125 96.863281 24.957031 96.792969 24.859375 C 96.496094 24.457031 95.960938 24.253906 95.1875 24.253906 C 94.050781 24.253906 93.484375 24.492188 93.484375 24.964844 C 93.484375 25.210938 93.617188 25.40625 93.886719 25.554688 C 94.171875 25.734375 94.652344 25.863281 95.332031 25.941406 C 96.890625 26.105469 98.023438 26.601562 98.730469 27.425781 C 99.203125 27.980469 99.441406 28.617188 99.441406 29.335938 L 99.441406 29.480469 L 99.417969 29.664062 C 99.417969 29.839844 99.398438 30 99.359375 30.148438 C 99.25 30.582031 99.042969 30.96875 98.746094 31.308594 C 98.40625 31.714844 97.933594 32.023438 97.328125 32.226562 C 96.714844 32.429688 95.992188 32.527344 95.152344 32.527344 Z M 95.152344 32.527344 " fill-opacity="1" fill-rule="nonzero"/><path fill="#f68712" d="M 103.484375 18.359375 L 103.484375 20.757812 L 100.65625 20.757812 L 100.65625 18.359375 Z M 103.507812 22.078125 L 103.507812 32.527344 L 100.65625 32.527344 L 100.65625 22.078125 Z M 103.507812 22.078125 " fill-opacity="1" fill-rule="nonzero"/><path fill="#f68712" d="M 112.246094 22.015625 L 115.09375 22.015625 L 115.09375 32.527344 L 112.246094 32.527344 L 112.246094 31.351562 C 111.664062 32.105469 110.785156 32.484375 109.605469 32.484375 C 108.167969 32.503906 106.9375 32 105.90625 30.984375 C 104.875 29.96875 104.351562 28.734375 104.339844 27.285156 C 104.328125 25.847656 104.828125 24.613281 105.84375 23.585938 C 106.863281 22.554688 108.09375 22.03125 109.546875 22.015625 C 110.734375 22.015625 111.636719 22.402344 112.246094 23.175781 Z M 111.394531 29.070312 C 111.894531 28.570312 112.148438 27.960938 112.148438 27.242188 C 112.148438 26.511719 111.890625 25.902344 111.375 25.414062 C 110.855469 24.898438 110.253906 24.652344 109.5625 24.679688 C 108.84375 24.679688 108.234375 24.933594 107.734375 25.429688 C 107.230469 25.9375 106.980469 26.546875 106.980469 27.261719 C 106.980469 27.964844 107.238281 28.578125 107.753906 29.09375 C 108.253906 29.59375 108.863281 29.84375 109.582031 29.84375 C 110.3125 29.816406 110.917969 29.558594 111.394531 29.070312 Z M 111.394531 29.070312 " fill-opacity="1" fill-rule="nonzero"/><path fill="#f68712" d="M 119.164062 23.621094 C 119.390625 22.972656 119.777344 22.519531 120.320312 22.265625 C 120.84375 22.003906 121.636719 21.875 122.695312 21.875 L 122.695312 24.78125 C 121.667969 24.78125 120.808594 25.132812 120.117188 25.839844 C 119.480469 26.464844 119.164062 27.148438 119.164062 27.890625 L 119.164062 32.527344 L 116.3125 32.527344 L 116.3125 22.058594 L 119.164062 22.058594 Z M 119.164062 23.621094 " fill-opacity="1" fill-rule="nonzero"/><path fill="#f68712" d="M 134.285156 32.527344 L 131.644531 32.527344 L 131.644531 27.367188 L 131.625 27.367188 L 131.625 27.304688 C 131.625 26.597656 131.371094 25.992188 130.867188 25.492188 C 130.367188 24.996094 129.757812 24.742188 129.039062 24.742188 C 128.335938 24.742188 127.726562 25 127.210938 25.511719 C 126.695312 26.03125 126.449219 26.640625 126.480469 27.347656 L 126.480469 27.367188 L 126.460938 27.367188 L 126.460938 32.527344 L 123.609375 32.527344 L 123.609375 19.3125 L 126.460938 19.3125 L 126.460938 23.378906 C 127.097656 22.621094 127.949219 22.191406 129.019531 22.097656 C 130.511719 21.976562 131.746094 22.363281 132.722656 23.253906 C 133.761719 24.21875 134.285156 25.566406 134.285156 27.304688 Z M 134.285156 32.527344 " fill-opacity="1" fill-rule="nonzero"/></svg>